<?xml version="1.0" standalone="no"?>
<!DOCTYPE svg PUBLIC "-//W3C//DTD SVG 20010904//EN"
 "http://www.w3.org/TR/2001/REC-SVG-20010904/DTD/svg10.dtd">
<svg version="1.0" xmlns="http://www.w3.org/2000/svg"
 width="700.000000pt" height="700.000000pt" viewBox="0 0 700.000000 700.000000"
 preserveAspectRatio="xMidYMid meet">
<metadata>
Created by potrace 1.14, written by Peter Selinger 2001-2017
</metadata>
<g transform="translate(0.000000,700.000000) scale(0.100000,-0.100000)"
fill="#000000" stroke="none">
<path d="M1865 6537 l0 -462 24 -5 c14 -3 118 -5 233 -4 l208 1 0 -1216 0
-1216 -28 -50 c-16 -27 -64 -111 -107 -185 -104 -178 -279 -482 -509 -880
-103 -179 -202 -350 -220 -380 -18 -30 -69 -118 -113 -195 -45 -77 -170 -295
-280 -485 -386 -667 -414 -718 -444 -801 -57 -153 -50 -313 17 -424 58 -97
134 -154 270 -202 l79 -28 2505 0 2505 0 82 28 c139 47 227 119 285 235 26 52
32 77 36 156 4 80 1 106 -22 185 -30 106 -39 124 -155 326 -48 83 -133 229
-188 325 -453 785 -920 1591 -953 1646 -22 36 -40 68 -40 69 0 2 -62 111 -139
242 -76 131 -161 279 -190 329 l-51 92 0 1210 c0 959 3 1211 13 1214 6 2 110
4 230 3 119 0 218 2 218 5 1 3 3 213 3 468 l2 462 -1636 0 -1635 0 0 -463z"/>
</g>
</svg>
